<?xml version="1.0" encoding="UTF-8"?>
<svg xmlns="http://www.w3.org/2000/svg" viewBox="0 0 128 128" width="128" height="128">
<path d="M56.02 0.06C61.36 0.06 66.71 0.06 72.05 0.06C72.29 0.53 82.77 2.63 84.52 3.27C93.72 6.64 101.77 11.53 108.92 18.25C116.19 25.07 120.97 33.75 124.63 42.88C125.32 44.6 127.37 54.32 127.94 54.61C127.94 60.97 127.94 67.32 127.94 73.67C127.37 73.95 125.34 83.46 124.69 85.17C121.26 94.12 116.51 102.07 109.86 109.02C102.95 116.23 94.36 121.1 85.17 124.69C83.44 125.36 73.96 127.35 73.67 127.94C67.24 127.94 60.81 127.94 54.38 127.94C54.1 127.32 44.89 125.4 43.13 124.73C33.85 121.23 25.16 116.16 18.24 108.93C11.49 101.87 6.6 93.66 3.27 84.52C2.63 82.76 0.55 72.56 0.06 72.32C0.06 66.87 0.06 61.42 0.06 55.97C0.49 55.75 2.65 45.47 3.24 43.77C6.36 34.62 11.55 26.1 18.32 19.16C25.44 11.86 34.11 6.95 43.51 3.33C45.33 2.62 55.78 0.55 56.02 0.06ZM70.83 31.03C61.36 31.03 51.89 31.03 42.42 31.03C37.78 52.56 33.14 74.08 28.5 95.6C31.16 97.07 46.18 96.1 50.17 96.1C51.87 96.1 55.56 96.8 56.98 95.82C57.8 95.25 60.21 83.16 59.83 82.05C56.51 81.87 53.19 81.68 49.87 81.5C52.36 69.53 54.85 57.56 57.34 45.58C60.72 45.58 64.11 45.58 67.5 45.58C68.61 40.73 69.72 35.88 70.83 31.03ZM101.5 31.03C92.09 31.03 82.69 31.03 73.28 31.03C72.15 33.6 69.48 43.27 70.43 45.6C73.68 45.6 76.92 45.6 80.17 45.6C80.92 51.6 76.55 64.62 75.22 71.12C74.54 74.43 74.49 79.05 72.5 81.83C69.17 81.83 65.83 81.83 62.5 81.83C61.39 86.58 60.28 91.33 59.17 96.08C68.72 96.08 78.28 96.08 87.83 96.08C92.39 74.4 96.94 52.72 101.5 31.03Z" fill="#010101" fill-rule="evenodd" stroke="#010101" stroke-width="0.25" stroke-linejoin="round"/>
<path d="M70.83 31.03C69.72 35.88 68.61 40.73 67.5 45.58C64.11 45.58 60.72 45.58 57.34 45.58C54.85 57.56 52.36 69.53 49.87 81.5C53.19 81.68 56.51 81.87 59.83 82.05C60.21 83.16 57.8 95.25 56.98 95.82C55.56 96.8 51.87 96.1 50.17 96.1C46.18 96.1 31.16 97.07 28.5 95.6C33.14 74.08 37.78 52.56 42.42 31.03C51.89 31.03 61.36 31.03 70.83 31.03ZM101.5 31.03C96.94 52.72 92.39 74.4 87.83 96.08C78.28 96.08 68.72 96.08 59.17 96.08C60.28 91.33 61.39 86.58 62.5 81.83C65.83 81.83 69.17 81.83 72.5 81.83C74.49 79.05 74.54 74.43 75.22 71.12C76.55 64.62 80.92 51.6 80.17 45.6C76.92 45.6 73.68 45.6 70.43 45.6C69.48 43.27 72.15 33.6 73.28 31.03C82.69 31.03 92.09 31.03 101.5 31.03Z" fill="#fefefe" fill-rule="evenodd" stroke="#fefefe" stroke-width="0.25" stroke-linejoin="round"/>
</svg>